<svg width="414" height="114" viewBox="0 0 414 114" fill="none" xmlns="http://www.w3.org/2000/svg">
<path d="M249.951 12.9405C250.53 11.6525 250.779 10.24 250.673 8.83145C250.567 7.42295 250.111 6.0633 249.345 4.87638C248.579 3.68947 247.529 2.71301 246.289 2.03598C245.049 1.35894 243.66 1.00285 242.248 1.00014C240.595 0.990529 238.975 1.46446 237.588 2.3636C236.201 3.26274 235.107 4.54783 234.442 6.06066C229.765 16.7055 219.073 40.9745 215.308 49.4773C215.121 49.8654 214.948 50.2396 214.789 50.5951C214.684 50.8451 214.515 51.0631 214.299 51.2272C214.083 51.3914 213.828 51.4959 213.559 51.5305H213.138C212.869 51.4964 212.613 51.392 212.397 51.2278C212.181 51.0636 212.013 50.8453 211.908 50.5951C211.74 50.2201 211.567 49.8474 211.389 49.4773L192.255 6.06066C191.589 4.54783 190.495 3.26274 189.109 2.3636C187.722 1.46446 186.102 0.990529 184.449 1.00014C183.037 1.00285 181.647 1.35894 180.408 2.03598C179.168 2.71301 178.118 3.68947 177.352 4.87638C176.586 6.0633 176.13 7.42295 176.024 8.83145C175.918 10.24 176.166 11.6525 176.746 12.9405C180.549 21.3591 199.757 64.018 201.179 67.1937C201.804 68.8591 202.804 70.3582 204.102 71.5748C205.399 72.7914 206.96 73.6929 208.662 74.2092C211.734 75.0432 214.972 75.0432 218.044 74.2092C219.746 73.6925 221.306 72.791 222.604 71.5744C223.902 70.3579 224.902 68.8589 225.527 67.1937C226.748 64.4249 246.148 21.3591 249.951 12.9405Z" fill="#00A2E4"/>
<path d="M309.047 24.9371C308.869 24.4601 308.68 23.9924 308.481 23.534C305.229 15.8452 299.466 9.4858 292.134 5.49402C284.802 1.50223 276.334 0.113853 268.111 1.55553C259.888 2.9972 252.397 7.18378 246.86 13.4318C241.323 19.6798 238.068 27.6202 237.626 35.9567C237.184 44.2932 239.581 52.5334 244.425 59.3321C249.27 66.1308 256.276 71.0864 264.301 73.3898C272.325 75.6933 280.893 75.2086 288.606 72.0149C296.319 68.8212 302.722 63.107 306.769 55.8053C307.724 53.9816 307.928 51.8566 307.338 49.8843C306.747 47.912 305.409 46.2489 303.608 45.2503C301.808 44.2518 299.688 43.997 297.702 44.5404C295.717 45.0838 294.022 46.3823 292.981 48.1584C291.262 51.2622 288.79 53.8835 285.792 55.7807C282.794 57.6779 279.366 58.7901 275.825 59.0146C272.285 59.2392 268.744 58.569 265.53 57.0657C262.317 55.5625 259.533 53.2745 257.436 50.4128L304.014 35.2593L304.108 35.2312L304.43 35.1283C305.405 34.7651 306.298 34.2128 307.058 33.5031C307.818 32.7934 308.43 31.9404 308.859 30.9932C309.288 30.046 309.525 29.0233 309.558 27.9839C309.59 26.9446 309.416 25.9091 309.047 24.9371ZM274.474 16.7477C277.333 16.7473 280.162 17.3274 282.79 18.453C285.419 19.5785 287.791 21.226 289.763 23.2955L253.521 35.0862C254.206 30.0129 256.707 25.3597 260.559 21.9881C264.411 18.6165 269.355 16.7548 274.474 16.7477Z" fill="#00A2E4"/>
<path d="M366.147 45.0575C365.242 44.5548 364.246 44.2355 363.217 44.1179C362.188 44.0003 361.146 44.0866 360.15 44.372C359.155 44.6574 358.225 45.1362 357.415 45.7811C356.605 46.426 355.929 47.2242 355.428 48.1303C353.709 51.2341 351.236 53.8554 348.238 55.7526C345.24 57.6498 341.813 58.7619 338.272 58.9865C334.731 59.211 331.191 58.5408 327.977 57.0376C324.763 55.5343 321.98 53.2464 319.882 50.3846L366.461 35.2311L366.549 35.2031L366.872 35.1002C368.831 34.3689 370.42 32.8893 371.288 30.9869C372.156 29.0844 372.234 26.915 371.502 24.9558C371.325 24.4787 371.136 24.011 370.936 23.5527C367.685 15.8638 361.922 9.50442 354.59 5.51263C347.258 1.52085 338.79 0.132469 330.567 1.57414C322.344 3.01582 314.853 7.20239 309.316 13.4504C303.779 19.6984 300.524 27.6388 300.082 35.9753C299.64 44.3118 302.037 52.5521 306.881 59.3507C311.726 66.1494 318.732 71.105 326.756 73.4085C334.781 75.7119 343.349 75.2272 351.062 72.0335C358.775 68.8398 365.178 63.1256 369.225 55.824C369.734 54.916 370.058 53.9162 370.179 52.8822C370.3 51.8482 370.215 50.8006 369.929 49.7996C369.643 48.7987 369.161 47.8643 368.512 47.0504C367.863 46.2365 367.059 45.5592 366.147 45.0575ZM336.921 16.7523C339.78 16.7519 342.609 17.332 345.237 18.4575C347.865 19.5831 350.237 21.2305 352.21 23.3001L315.968 35.0908C316.652 30.0167 319.152 25.3623 323.004 21.9898C326.857 18.6172 331.801 16.7595 336.921 16.7523Z" fill="#00A2E4"/>
<path d="M153 44.5C153 40.9101 155.91 38 159.5 38H180.5C184.09 38 187 40.9101 187 44.5C187 48.0899 184.09 51 180.5 51H159.5C155.91 51 153 48.0899 153 44.5Z" fill="url(#paint0_linear_6_92)"/>
<path d="M73.8851 21.4343C67.5851 23.0343 63.2851 24.2343 57.0851 25.8343C55.5851 26.2343 55.4851 26.3343 54.1851 24.8343C52.6851 23.1343 51.5851 22.0343 49.4851 21.0343C43.1851 17.9343 37.0851 18.8343 31.3851 22.5343C24.5851 26.9343 21.0851 33.4343 21.1851 41.5343C21.2851 49.5343 26.7851 56.1343 34.6851 57.2343C41.4851 58.1343 47.1851 55.7343 51.6851 50.6343C52.5851 49.5343 53.3851 48.3343 54.3851 46.9343C50.7851 46.9343 46.2851 46.9343 35.0851 46.9343C32.9851 46.9343 32.4851 45.6343 33.1851 43.9343C34.4851 40.8343 36.8851 35.6343 38.2851 33.0343C38.5851 32.4343 39.2851 31.4343 40.7851 31.4343C45.8851 31.4343 64.6851 31.4343 77.1851 31.4343C76.9851 34.1343 76.9851 36.8343 76.5851 39.5343C75.4851 46.7343 72.7851 53.3343 68.3851 59.1343C61.1851 68.6343 51.7851 74.5343 39.8851 76.1343C30.0851 77.4343 20.9851 75.5343 12.9851 69.5343C5.58507 63.9343 1.38507 56.5343 0.285073 47.3343C-1.01493 36.4343 2.18507 26.6343 8.78507 18.0343C15.8851 8.73433 25.2851 2.83433 36.7851 0.734327C46.1851 -0.965673 55.1851 0.134326 63.2851 5.63433C68.5851 9.13433 72.3851 13.9343 74.8851 19.7343C75.4851 20.6343 75.0851 21.1343 73.8851 21.4343Z" fill="#00ACD7"/>
<path d="M106.985 76.7343C97.8851 76.5343 89.5851 73.9343 82.5851 67.9343C76.6851 62.8343 72.9851 56.3343 71.7851 48.6343C69.9851 37.3343 73.0851 27.3343 79.8851 18.4343C87.1851 8.83433 95.9851 3.83433 107.885 1.73433C118.085 -0.0656731 127.685 0.934327 136.385 6.83433C144.285 12.2343 149.185 19.5343 150.485 29.1343C152.185 42.6343 148.285 53.6343 138.985 63.0343C132.385 69.7343 124.285 73.9343 114.985 75.8343C112.285 76.3343 109.585 76.4343 106.985 76.7343ZM130.785 36.3343C130.685 35.0343 130.685 34.0343 130.485 33.0343C128.685 23.1343 119.585 17.5343 110.085 19.7343C100.785 21.8343 94.7851 27.7343 92.5851 37.1343C90.7851 44.9343 94.5851 52.8343 101.785 56.0343C107.285 58.4343 112.785 58.1343 118.085 55.4343C125.985 51.3343 130.285 44.9343 130.785 36.3343Z" fill="#00ACD7"/>
<path d="M345.839 98.4258C345.948 98.184 345.994 97.9189 345.974 97.6546C345.955 97.3902 345.869 97.135 345.725 96.9123C345.582 96.6895 345.384 96.5063 345.152 96.3792C344.919 96.2521 344.658 96.1853 344.393 96.1848C344.083 96.183 343.779 96.2719 343.519 96.4407C343.258 96.6094 343.053 96.8506 342.928 97.1345C342.05 99.1324 340.044 103.687 339.337 105.283C339.302 105.356 339.27 105.426 339.24 105.493C339.22 105.54 339.188 105.581 339.148 105.611C339.107 105.642 339.059 105.662 339.009 105.668H338.93C338.879 105.662 338.831 105.642 338.791 105.611C338.75 105.581 338.719 105.54 338.699 105.493C338.668 105.422 338.635 105.352 338.602 105.283L335.011 97.1345C334.886 96.8506 334.68 96.6094 334.42 96.4407C334.16 96.2719 333.856 96.183 333.546 96.1848C333.281 96.1853 333.02 96.2521 332.787 96.3792C332.555 96.5063 332.357 96.6895 332.214 96.9123C332.07 97.135 331.984 97.3902 331.964 97.6546C331.945 97.9189 331.991 98.184 332.1 98.4258C332.814 100.006 336.419 108.012 336.685 108.608C336.803 108.921 336.99 109.202 337.234 109.43C337.478 109.659 337.77 109.828 338.09 109.925C338.666 110.081 339.274 110.081 339.851 109.925C340.17 109.828 340.463 109.658 340.707 109.43C340.95 109.202 341.138 108.92 341.255 108.608C341.484 108.088 345.125 100.006 345.839 98.4258Z" fill="#00A2E4"/>
<path d="M325.151 96.1822C323.776 96.1486 322.423 96.5247 321.263 97.2627C320.103 98.0006 319.189 99.067 318.636 100.326C318.084 101.585 317.919 102.98 318.162 104.333C318.405 105.687 319.046 106.937 320.002 107.925C320.957 108.913 322.186 109.595 323.53 109.883C324.874 110.171 326.274 110.053 327.551 109.543C328.828 109.033 329.924 108.155 330.7 107.02C331.476 105.885 331.897 104.545 331.91 103.17C331.921 101.353 331.22 99.6032 329.956 98.2968C328.693 96.9904 326.967 96.2313 325.151 96.1822ZM324.975 107.074C324.193 107.073 323.429 106.84 322.779 106.404C322.129 105.968 321.623 105.35 321.324 104.627C321.026 103.903 320.949 103.108 321.102 102.341C321.255 101.574 321.632 100.869 322.186 100.316C322.739 99.7635 323.444 99.3871 324.212 99.2346C324.979 99.0821 325.774 99.1605 326.497 99.4597C327.22 99.759 327.838 100.266 328.273 100.916C328.708 101.566 328.94 102.331 328.941 103.113C328.941 103.634 328.838 104.15 328.639 104.631C328.439 105.112 328.147 105.549 327.778 105.917C327.409 106.285 326.971 106.577 326.49 106.775C326.008 106.974 325.492 107.076 324.972 107.074H324.975Z" fill="#00A2E4"/>
<path d="M359.37 100.677C359.336 100.588 359.301 100.5 359.264 100.414C358.653 98.9709 357.572 97.7774 356.196 97.0282C354.82 96.279 353.23 96.0184 351.687 96.289C350.144 96.5596 348.738 97.3453 347.699 98.5179C346.66 99.6906 346.049 101.181 345.966 102.745C345.883 104.31 346.333 105.857 347.242 107.132C348.151 108.408 349.466 109.339 350.972 109.771C352.478 110.203 354.086 110.112 355.534 109.513C356.981 108.913 358.183 107.841 358.942 106.471C359.122 106.128 359.16 105.729 359.049 105.359C358.938 104.989 358.687 104.677 358.349 104.49C358.011 104.302 357.613 104.254 357.241 104.356C356.868 104.458 356.55 104.702 356.355 105.035C356.032 105.618 355.568 106.11 355.005 106.466C354.443 106.822 353.799 107.031 353.135 107.073C352.47 107.115 351.806 106.989 351.203 106.707C350.6 106.425 350.077 105.996 349.684 105.458L358.425 102.615L358.443 102.609L358.503 102.59C358.686 102.522 358.854 102.418 358.997 102.285C359.139 102.152 359.254 101.992 359.335 101.814C359.415 101.636 359.46 101.444 359.466 101.249C359.472 101.054 359.439 100.86 359.37 100.677ZM352.881 99.1403C353.418 99.1402 353.949 99.2491 354.442 99.4603C354.935 99.6716 355.381 99.9807 355.751 100.369L348.949 102.582C349.077 101.63 349.547 100.757 350.27 100.124C350.993 99.491 351.92 99.1416 352.881 99.1403Z" fill="#00A2E4"/>
<path d="M298.768 96.0742L298.875 96.1304C299.272 96.3328 299.728 96.3859 300.161 96.2803C300.594 96.1746 300.974 95.9171 301.233 95.5546C301.768 94.8234 302.446 94.2083 303.226 93.7463C304.006 93.2844 304.871 92.9853 305.769 92.867C306.668 92.7487 307.581 92.8137 308.453 93.0581C309.326 93.3024 310.14 93.7211 310.846 94.2888C311.175 94.5536 311.585 94.6973 312.008 94.696C312.43 94.6948 312.839 94.5485 313.166 94.2818L313.262 94.2037C313.473 94.0321 313.643 93.816 313.761 93.5708C313.879 93.3256 313.94 93.0575 313.942 92.7856C313.944 92.5137 313.886 92.2447 313.771 91.9981C313.657 91.7514 313.489 91.5331 313.28 91.3588C312.168 90.4534 310.882 89.7853 309.501 89.3955C308.121 89.0058 306.675 88.9026 305.253 89.0925C303.831 89.2823 302.464 89.7612 301.234 90.4995C300.004 91.2378 298.938 92.22 298.102 93.3856C297.951 93.6005 297.848 93.8453 297.8 94.1033C297.752 94.3614 297.76 94.6268 297.823 94.8816C297.886 95.1364 298.003 95.3747 298.166 95.5804C298.329 95.7861 298.535 95.9545 298.768 96.0742Z" fill="#00A2E4"/>
<path d="M315.276 97.6445H304.918C304.423 97.6445 303.948 97.8413 303.597 98.1915C303.247 98.5417 303.05 99.0167 303.05 99.512C303.05 100.007 303.247 100.482 303.597 100.833C303.948 101.183 304.423 101.379 304.918 101.379H313.094C312.743 102.58 312.065 103.658 311.136 104.495C310.207 105.332 309.064 105.895 307.834 106.119C307.661 106.15 307.488 106.173 307.313 106.19C306.158 106.306 304.993 106.12 303.931 105.65C302.869 105.18 301.948 104.443 301.257 103.51C301.109 103.308 300.923 103.137 300.709 103.008C300.495 102.878 300.257 102.792 300.01 102.754C299.763 102.716 299.511 102.727 299.268 102.786C299.025 102.846 298.796 102.952 298.594 103.1C298.392 103.248 298.222 103.435 298.092 103.648C297.962 103.862 297.876 104.1 297.838 104.347C297.761 104.846 297.886 105.356 298.185 105.763C299.5 107.544 301.344 108.864 303.453 109.536C305.563 110.207 307.831 110.196 309.934 109.503C312.036 108.811 313.867 107.472 315.165 105.679C316.462 103.885 317.161 101.727 317.16 99.5133V99.494C317.153 98.9998 316.951 98.5285 316.598 98.1823C316.245 97.8361 315.77 97.6429 315.276 97.6445Z" fill="#00A2E4"/>
<path d="M298.006 101.809C299.259 101.606 300.11 100.425 299.907 99.172C299.703 97.9188 298.522 97.0677 297.269 97.271C296.016 97.4744 295.165 98.6552 295.368 99.9085C295.572 101.162 296.752 102.013 298.006 101.809Z" fill="#00A2E4"/>
<path d="M372.902 104.453C372.732 104.359 372.545 104.299 372.352 104.277C372.159 104.255 371.963 104.271 371.776 104.325C371.589 104.378 371.415 104.468 371.263 104.589C371.111 104.71 370.984 104.86 370.89 105.03C370.567 105.613 370.103 106.105 369.54 106.461C368.978 106.817 368.335 107.025 367.67 107.068C367.005 107.11 366.341 106.984 365.738 106.702C365.135 106.42 364.612 105.99 364.219 105.453L372.96 102.609L372.977 102.604L373.038 102.585C373.405 102.447 373.703 102.17 373.866 101.813C374.029 101.456 374.044 101.048 373.907 100.681C373.873 100.591 373.838 100.503 373.8 100.417C373.19 98.9744 372.109 97.7809 370.733 97.0317C369.357 96.2825 367.767 96.022 366.224 96.2925C364.681 96.5631 363.275 97.3488 362.236 98.5215C361.196 99.6941 360.586 101.184 360.503 102.749C360.42 104.313 360.869 105.86 361.779 107.136C362.688 108.412 364.003 109.342 365.509 109.774C367.015 110.207 368.623 110.116 370.07 109.516C371.518 108.917 372.72 107.844 373.479 106.474C373.575 106.304 373.636 106.116 373.658 105.922C373.681 105.728 373.665 105.531 373.611 105.343C373.558 105.156 373.467 104.98 373.345 104.827C373.224 104.675 373.073 104.548 372.902 104.453ZM367.416 99.1411C367.953 99.1411 368.484 99.2499 368.977 99.4612C369.47 99.6724 369.916 99.9816 370.286 100.37L363.484 102.583C363.612 101.631 364.082 100.757 364.805 100.124C365.528 99.4911 366.455 99.1425 367.416 99.1411Z" fill="#00A2E4"/>
<path d="M0.585022 109.546L5.61602 95.8961H7.35152L12.363 109.546H10.6275L9.37952 106.036H3.56852L2.30102 109.546H0.585022ZM4.05602 104.71H8.89202L6.47402 97.9631L4.05602 104.71Z" fill="#7A7A7A"/>
<path d="M14.2947 109.546V99.8741H15.7767L15.8742 101.61C16.1862 100.999 16.6347 100.518 17.2197 100.167C17.8047 99.8156 18.4677 99.6401 19.2087 99.6401C20.3527 99.6401 21.2627 99.9911 21.9387 100.693C22.6277 101.382 22.9722 102.448 22.9722 103.891V109.546H21.3342V104.067C21.3342 102.052 20.5022 101.044 18.8382 101.044C18.0062 101.044 17.3107 101.35 16.7517 101.961C16.2057 102.559 15.9327 103.417 15.9327 104.535V109.546H14.2947Z" fill="#7A7A7A"/>
<path d="M34.1441 109.78C33.0001 109.78 32.0901 109.436 31.4141 108.747C30.7381 108.045 30.4001 106.972 30.4001 105.529V99.8741H32.0381V105.354C32.0381 107.369 32.8636 108.376 34.5146 108.376C35.3596 108.376 36.0551 108.077 36.6011 107.479C37.1601 106.868 37.4396 106.004 37.4396 104.886V99.8741H39.0776V109.546H37.5956L37.4786 107.811C37.1796 108.422 36.7311 108.903 36.1331 109.254C35.5481 109.605 34.8851 109.78 34.1441 109.78Z" fill="#7A7A7A"/>
<path d="M41.7737 109.546V99.8741H43.2557L43.3532 101.61C43.6652 100.999 44.1137 100.518 44.6987 100.167C45.2837 99.8156 45.9467 99.6401 46.6877 99.6401C47.8317 99.6401 48.7417 99.9911 49.4177 100.693C50.1067 101.382 50.4512 102.448 50.4512 103.891V109.546H48.8132V104.067C48.8132 102.052 47.9812 101.044 46.3172 101.044C45.4852 101.044 44.7897 101.35 44.2307 101.961C43.6847 102.559 43.4117 103.417 43.4117 104.535V109.546H41.7737Z" fill="#7A7A7A"/>
<path d="M57.3399 109.78C56.4299 109.78 55.6109 109.572 54.8829 109.156C54.1549 108.74 53.5764 108.155 53.1474 107.401C52.7314 106.634 52.5234 105.737 52.5234 104.71C52.5234 103.683 52.7379 102.793 53.1669 102.039C53.5959 101.272 54.1744 100.68 54.9024 100.264C55.6434 99.8481 56.4689 99.6401 57.3789 99.6401C58.2889 99.6401 59.1079 99.8481 59.8359 100.264C60.5639 100.68 61.1359 101.272 61.5519 102.039C61.9809 102.793 62.1954 103.683 62.1954 104.71C62.1954 105.737 61.9809 106.634 61.5519 107.401C61.1229 108.155 60.5379 108.74 59.7969 109.156C59.0689 109.572 58.2499 109.78 57.3399 109.78ZM57.3399 108.376C57.8989 108.376 58.4189 108.24 58.8999 107.967C59.3809 107.694 59.7709 107.284 60.0699 106.738C60.3689 106.192 60.5184 105.516 60.5184 104.71C60.5184 103.904 60.3689 103.228 60.0699 102.682C59.7839 102.136 59.4004 101.727 58.9194 101.454C58.4384 101.181 57.9249 101.044 57.3789 101.044C56.8199 101.044 56.2999 101.181 55.8189 101.454C55.3379 101.727 54.9479 102.136 54.6489 102.682C54.3499 103.228 54.2004 103.904 54.2004 104.71C54.2004 105.516 54.3499 106.192 54.6489 106.738C54.9479 107.284 55.3314 107.694 55.7994 107.967C56.2804 108.24 56.7939 108.376 57.3399 108.376Z" fill="#7A7A7A"/>
<path d="M64.9995 109.546V101.259H63.537V99.8741H64.9995V98.1971C64.9995 97.2611 65.2335 96.5786 65.7015 96.1496C66.1695 95.7206 66.852 95.5061 67.749 95.5061H68.724V96.9101H68.0025C67.5085 96.9101 67.1575 97.0141 66.9495 97.2221C66.7415 97.4171 66.6375 97.7551 66.6375 98.2361V99.8741H69.0165V101.259H66.6375V109.546H64.9995Z" fill="#7A7A7A"/>
<path d="M71.4931 109.546V101.259H70.0306V99.8741H71.4931V98.1971C71.4931 97.2611 71.7271 96.5786 72.1951 96.1496C72.6631 95.7206 73.3456 95.5061 74.2426 95.5061H75.2176V96.9101H74.4961C74.0021 96.9101 73.6511 97.0141 73.4431 97.2221C73.2351 97.4171 73.1311 97.7551 73.1311 98.2361V99.8741H79.1371V109.546H77.4991V101.259H73.1311V109.546H71.4931ZM78.3376 98.0216C78.0256 98.0216 77.7591 97.9176 77.5381 97.7096C77.3171 97.4886 77.2066 97.2156 77.2066 96.8906C77.2066 96.5786 77.3171 96.3186 77.5381 96.1106C77.7591 95.9026 78.0256 95.7986 78.3376 95.7986C78.6626 95.7986 78.9291 95.9026 79.1371 96.1106C79.3581 96.3186 79.4686 96.5786 79.4686 96.8906C79.4686 97.2156 79.3581 97.4886 79.1371 97.7096C78.9291 97.9176 78.6626 98.0216 78.3376 98.0216Z" fill="#7A7A7A"/>
<path d="M86.4766 109.78C85.5536 109.78 84.7216 109.572 83.9806 109.156C83.2526 108.727 82.6741 108.136 82.2451 107.382C81.8291 106.615 81.6211 105.724 81.6211 104.71C81.6211 103.696 81.8291 102.812 82.2451 102.058C82.6741 101.291 83.2526 100.7 83.9806 100.284C84.7216 99.8546 85.5536 99.6401 86.4766 99.6401C87.6206 99.6401 88.5826 99.9391 89.3626 100.537C90.1556 101.135 90.6561 101.935 90.8641 102.936H89.1871C89.0571 102.338 88.7386 101.876 88.2316 101.551C87.7246 101.213 87.1331 101.044 86.4571 101.044C85.9111 101.044 85.3976 101.181 84.9166 101.454C84.4356 101.727 84.0456 102.136 83.7466 102.682C83.4476 103.228 83.2981 103.904 83.2981 104.71C83.2981 105.516 83.4476 106.192 83.7466 106.738C84.0456 107.284 84.4356 107.7 84.9166 107.986C85.3976 108.259 85.9111 108.396 86.4571 108.396C87.1331 108.396 87.7246 108.233 88.2316 107.908C88.7386 107.57 89.0571 107.096 89.1871 106.485H90.8641C90.6691 107.46 90.1751 108.253 89.3821 108.864C88.5891 109.475 87.6206 109.78 86.4766 109.78Z" fill="#7A7A7A"/>
<path d="M94.1462 97.7291C93.8212 97.7291 93.5482 97.6251 93.3272 97.4171C93.1192 97.1961 93.0152 96.9231 93.0152 96.5981C93.0152 96.2861 93.1192 96.0261 93.3272 95.8181C93.5482 95.6101 93.8212 95.5061 94.1462 95.5061C94.4582 95.5061 94.7247 95.6101 94.9457 95.8181C95.1667 96.0261 95.2772 96.2861 95.2772 96.5981C95.2772 96.9231 95.1667 97.1961 94.9457 97.4171C94.7247 97.6251 94.4582 97.7291 94.1462 97.7291ZM93.3272 109.546V99.8741H94.9652V109.546H93.3272Z" fill="#7A7A7A"/>
<path d="M101.035 109.78C100.229 109.78 99.5592 109.644 99.0262 109.371C98.4932 109.098 98.0967 108.734 97.8367 108.279C97.5767 107.824 97.4467 107.33 97.4467 106.797C97.4467 105.809 97.8237 105.048 98.5777 104.515C99.3317 103.982 100.359 103.716 101.659 103.716H104.272V103.599C104.272 102.754 104.051 102.117 103.609 101.688C103.167 101.246 102.575 101.025 101.834 101.025C101.197 101.025 100.645 101.187 100.177 101.512C99.7217 101.824 99.4357 102.286 99.3187 102.897H97.6417C97.7067 102.195 97.9407 101.603 98.3437 101.122C98.7597 100.641 99.2732 100.277 99.8842 100.03C100.495 99.7701 101.145 99.6401 101.834 99.6401C103.186 99.6401 104.2 100.004 104.876 100.732C105.565 101.447 105.91 102.403 105.91 103.599V109.546H104.447L104.35 107.811C104.077 108.357 103.674 108.825 103.141 109.215C102.621 109.592 101.919 109.78 101.035 109.78ZM101.288 108.396C101.912 108.396 102.445 108.233 102.887 107.908C103.342 107.583 103.687 107.161 103.921 106.641C104.155 106.121 104.272 105.575 104.272 105.003V104.983H101.795C100.833 104.983 100.151 105.152 99.7477 105.49C99.3577 105.815 99.1627 106.225 99.1627 106.719C99.1627 107.226 99.3447 107.635 99.7087 107.947C100.086 108.246 100.612 108.396 101.288 108.396Z" fill="#7A7A7A"/>
<path d="M108.367 109.546V95.5061H110.005V109.546H108.367Z" fill="#7A7A7A"/>
<path d="M123.817 109.78C122.543 109.78 121.425 109.488 120.463 108.903C119.501 108.305 118.754 107.479 118.221 106.426C117.688 105.36 117.421 104.132 117.421 102.741C117.421 101.35 117.688 100.121 118.221 99.0551C118.767 97.9891 119.534 97.1571 120.522 96.5591C121.523 95.9611 122.699 95.6621 124.051 95.6621C125.585 95.6621 126.859 96.0326 127.873 96.7736C128.9 97.5146 129.563 98.5351 129.862 99.8351H127.971C127.789 99.0161 127.353 98.3661 126.664 97.8851C125.988 97.4041 125.117 97.1636 124.051 97.1636C123.05 97.1636 122.179 97.3911 121.438 97.8461C120.697 98.2881 120.119 98.9251 119.703 99.7571C119.3 100.589 119.098 101.584 119.098 102.741C119.098 103.898 119.3 104.892 119.703 105.724C120.106 106.556 120.665 107.2 121.38 107.655C122.095 108.097 122.927 108.318 123.876 108.318C125.332 108.318 126.43 107.895 127.171 107.05C127.912 106.192 128.335 105.022 128.439 103.54H124.5V102.253H130.116V109.546H128.614L128.478 107.304C127.984 108.097 127.379 108.708 126.664 109.137C125.949 109.566 125 109.78 123.817 109.78Z" fill="#7A7A7A"/>
<path d="M137.016 109.78C136.106 109.78 135.287 109.572 134.559 109.156C133.831 108.74 133.252 108.155 132.823 107.401C132.407 106.634 132.199 105.737 132.199 104.71C132.199 103.683 132.414 102.793 132.843 102.039C133.272 101.272 133.85 100.68 134.578 100.264C135.319 99.8481 136.145 99.6401 137.055 99.6401C137.965 99.6401 138.784 99.8481 139.512 100.264C140.24 100.68 140.812 101.272 141.228 102.039C141.657 102.793 141.871 103.683 141.871 104.71C141.871 105.737 141.657 106.634 141.228 107.401C140.799 108.155 140.214 108.74 139.473 109.156C138.745 109.572 137.926 109.78 137.016 109.78ZM137.016 108.376C137.575 108.376 138.095 108.24 138.576 107.967C139.057 107.694 139.447 107.284 139.746 106.738C140.045 106.192 140.194 105.516 140.194 104.71C140.194 103.904 140.045 103.228 139.746 102.682C139.46 102.136 139.076 101.727 138.595 101.454C138.114 101.181 137.601 101.044 137.055 101.044C136.496 101.044 135.976 101.181 135.495 101.454C135.014 101.727 134.624 102.136 134.325 102.682C134.026 103.228 133.876 103.904 133.876 104.71C133.876 105.516 134.026 106.192 134.325 106.738C134.624 107.284 135.007 107.694 135.475 107.967C135.956 108.24 136.47 108.376 137.016 108.376Z" fill="#7A7A7A"/>
<path d="M151.259 109.546L148.432 99.8741H150.07L152.117 107.46L154.379 99.8741H156.232L158.513 107.46L160.541 99.8741H162.199L159.371 109.546H157.694L155.315 101.571L152.936 109.546H151.259Z" fill="#7A7A7A"/>
<path d="M164.011 109.546V99.8741H165.493L165.629 101.727C165.928 101.09 166.383 100.583 166.994 100.206C167.605 99.8286 168.359 99.6401 169.256 99.6401V101.356H168.808C168.236 101.356 167.709 101.46 167.228 101.668C166.747 101.863 166.364 102.201 166.078 102.682C165.792 103.163 165.649 103.826 165.649 104.671V109.546H164.011Z" fill="#7A7A7A"/>
<path d="M174.312 109.78C173.506 109.78 172.837 109.644 172.304 109.371C171.771 109.098 171.374 108.734 171.114 108.279C170.854 107.824 170.724 107.33 170.724 106.797C170.724 105.809 171.101 105.048 171.855 104.515C172.609 103.982 173.636 103.716 174.936 103.716H177.549V103.599C177.549 102.754 177.328 102.117 176.886 101.688C176.444 101.246 175.853 101.025 175.112 101.025C174.475 101.025 173.922 101.187 173.454 101.512C172.999 101.824 172.713 102.286 172.596 102.897H170.919C170.984 102.195 171.218 101.603 171.621 101.122C172.037 100.641 172.551 100.277 173.162 100.03C173.773 99.7701 174.423 99.6401 175.112 99.6401C176.464 99.6401 177.478 100.004 178.154 100.732C178.843 101.447 179.187 102.403 179.187 103.599V109.546H177.725L177.627 107.811C177.354 108.357 176.951 108.825 176.418 109.215C175.898 109.592 175.196 109.78 174.312 109.78ZM174.566 108.396C175.19 108.396 175.723 108.233 176.165 107.908C176.62 107.583 176.964 107.161 177.198 106.641C177.432 106.121 177.549 105.575 177.549 105.003V104.983H175.073C174.111 104.983 173.428 105.152 173.025 105.49C172.635 105.815 172.44 106.225 172.44 106.719C172.44 107.226 172.622 107.635 172.986 107.947C173.363 108.246 173.89 108.396 174.566 108.396Z" fill="#7A7A7A"/>
<path d="M181.644 113.836V99.8741H183.126L183.282 101.473C183.594 101.005 184.036 100.583 184.608 100.206C185.193 99.8286 185.934 99.6401 186.831 99.6401C187.793 99.6401 188.632 99.8611 189.347 100.303C190.062 100.745 190.614 101.35 191.004 102.117C191.407 102.884 191.609 103.755 191.609 104.73C191.609 105.705 191.407 106.576 191.004 107.343C190.614 108.097 190.055 108.695 189.327 109.137C188.612 109.566 187.774 109.78 186.812 109.78C186.019 109.78 185.31 109.618 184.686 109.293C184.075 108.968 183.607 108.513 183.282 107.928V113.836H181.644ZM186.636 108.357C187.286 108.357 187.858 108.207 188.352 107.908C188.846 107.596 189.236 107.167 189.522 106.621C189.808 106.075 189.951 105.438 189.951 104.71C189.951 103.982 189.808 103.345 189.522 102.799C189.236 102.253 188.846 101.831 188.352 101.532C187.858 101.22 187.286 101.064 186.636 101.064C185.986 101.064 185.414 101.22 184.92 101.532C184.426 101.831 184.036 102.253 183.75 102.799C183.464 103.345 183.321 103.982 183.321 104.71C183.321 105.438 183.464 106.075 183.75 106.621C184.036 107.167 184.426 107.596 184.92 107.908C185.414 108.207 185.986 108.357 186.636 108.357Z" fill="#7A7A7A"/>
<path d="M193.889 113.836V99.8741H195.371L195.527 101.473C195.839 101.005 196.281 100.583 196.853 100.206C197.438 99.8286 198.179 99.6401 199.076 99.6401C200.038 99.6401 200.876 99.8611 201.591 100.303C202.306 100.745 202.859 101.35 203.249 102.117C203.652 102.884 203.853 103.755 203.853 104.73C203.853 105.705 203.652 106.576 203.249 107.343C202.859 108.097 202.3 108.695 201.572 109.137C200.857 109.566 200.018 109.78 199.056 109.78C198.263 109.78 197.555 109.618 196.931 109.293C196.32 108.968 195.852 108.513 195.527 107.928V113.836H193.889ZM198.881 108.357C199.531 108.357 200.103 108.207 200.597 107.908C201.091 107.596 201.481 107.167 201.767 106.621C202.053 106.075 202.196 105.438 202.196 104.71C202.196 103.982 202.053 103.345 201.767 102.799C201.481 102.253 201.091 101.831 200.597 101.532C200.103 101.22 199.531 101.064 198.881 101.064C198.231 101.064 197.659 101.22 197.165 101.532C196.671 101.831 196.281 102.253 195.995 102.799C195.709 103.345 195.566 103.982 195.566 104.71C195.566 105.438 195.709 106.075 195.995 106.621C196.281 107.167 196.671 107.596 197.165 107.908C197.659 108.207 198.231 108.357 198.881 108.357Z" fill="#7A7A7A"/>
<path d="M210.482 109.78C209.559 109.78 208.74 109.572 208.025 109.156C207.31 108.727 206.745 108.136 206.329 107.382C205.926 106.628 205.724 105.737 205.724 104.71C205.724 103.696 205.926 102.812 206.329 102.058C206.732 101.291 207.291 100.7 208.006 100.284C208.734 99.8546 209.572 99.6401 210.521 99.6401C211.457 99.6401 212.263 99.8546 212.939 100.284C213.628 100.7 214.155 101.252 214.519 101.941C214.883 102.63 215.065 103.371 215.065 104.164C215.065 104.307 215.058 104.45 215.045 104.593C215.045 104.736 215.045 104.899 215.045 105.081H207.343C207.382 105.822 207.551 106.439 207.85 106.933C208.162 107.414 208.545 107.778 209 108.025C209.468 108.272 209.962 108.396 210.482 108.396C211.158 108.396 211.724 108.24 212.179 107.928C212.634 107.616 212.965 107.193 213.173 106.66H214.792C214.532 107.557 214.031 108.305 213.29 108.903C212.562 109.488 211.626 109.78 210.482 109.78ZM210.482 101.025C209.702 101.025 209.007 101.265 208.396 101.746C207.798 102.214 207.453 102.903 207.362 103.813H213.446C213.407 102.942 213.108 102.26 212.549 101.766C211.99 101.272 211.301 101.025 210.482 101.025Z" fill="#7A7A7A"/>
<path d="M217.236 109.546V99.8741H218.718L218.854 101.727C219.153 101.09 219.608 100.583 220.219 100.206C220.83 99.8286 221.584 99.6401 222.481 99.6401V101.356H222.033C221.461 101.356 220.934 101.46 220.453 101.668C219.972 101.863 219.589 102.201 219.303 102.682C219.017 103.163 218.874 103.826 218.874 104.671V109.546H217.236Z" fill="#7A7A7A"/>
<path d="M230.007 109.546V101.259H228.544V99.8741H230.007V98.1971C230.007 97.2611 230.241 96.5786 230.709 96.1496C231.177 95.7206 231.859 95.5061 232.756 95.5061H233.731V96.9101H233.01C232.516 96.9101 232.165 97.0141 231.957 97.2221C231.749 97.4171 231.645 97.7551 231.645 98.2361V99.8741H234.024V101.259H231.645V109.546H230.007Z" fill="#7A7A7A"/>
<path d="M240 109.78C239.09 109.78 238.271 109.572 237.543 109.156C236.815 108.74 236.237 108.155 235.808 107.401C235.392 106.634 235.184 105.737 235.184 104.71C235.184 103.683 235.398 102.793 235.827 102.039C236.256 101.272 236.835 100.68 237.563 100.264C238.304 99.8481 239.129 99.6401 240.039 99.6401C240.949 99.6401 241.768 99.8481 242.496 100.264C243.224 100.68 243.796 101.272 244.212 102.039C244.641 102.793 244.856 103.683 244.856 104.71C244.856 105.737 244.641 106.634 244.212 107.401C243.783 108.155 243.198 108.74 242.457 109.156C241.729 109.572 240.91 109.78 240 109.78ZM240 108.376C240.559 108.376 241.079 108.24 241.56 107.967C242.041 107.694 242.431 107.284 242.73 106.738C243.029 106.192 243.179 105.516 243.179 104.71C243.179 103.904 243.029 103.228 242.73 102.682C242.444 102.136 242.061 101.727 241.58 101.454C241.099 101.181 240.585 101.044 240.039 101.044C239.48 101.044 238.96 101.181 238.479 101.454C237.998 101.727 237.608 102.136 237.309 102.682C237.01 103.228 236.861 103.904 236.861 104.71C236.861 105.516 237.01 106.192 237.309 106.738C237.608 107.284 237.992 107.694 238.46 107.967C238.941 108.24 239.454 108.376 240 108.376Z" fill="#7A7A7A"/>
<path d="M247.133 109.546V99.8741H248.615L248.752 101.727C249.051 101.09 249.506 100.583 250.117 100.206C250.728 99.8286 251.482 99.6401 252.379 99.6401V101.356H251.93C251.358 101.356 250.832 101.46 250.351 101.668C249.87 101.863 249.486 102.201 249.2 102.682C248.914 103.163 248.771 103.826 248.771 104.671V109.546H247.133Z" fill="#7A7A7A"/>
<path d="M263.2 109.546C262.316 109.546 261.62 109.332 261.113 108.903C260.606 108.474 260.353 107.7 260.353 106.582V101.259H258.676V99.8741H260.353L260.567 97.5536H261.991V99.8741H264.838V101.259H261.991V106.582C261.991 107.193 262.114 107.609 262.361 107.83C262.608 108.038 263.044 108.142 263.668 108.142H264.682V109.546H263.2Z" fill="#7A7A7A"/>
<path d="M266.919 109.546V95.5061H268.557V101.532C268.882 100.934 269.343 100.472 269.941 100.147C270.539 99.8091 271.189 99.6401 271.891 99.6401C273.009 99.6401 273.906 99.9911 274.582 100.693C275.258 101.382 275.596 102.448 275.596 103.891V109.546H273.978V104.067C273.978 102.052 273.165 101.044 271.54 101.044C270.695 101.044 269.987 101.35 269.415 101.961C268.843 102.559 268.557 103.417 268.557 104.535V109.546H266.919Z" fill="#7A7A7A"/>
<path d="M282.426 109.78C281.503 109.78 280.684 109.572 279.969 109.156C279.254 108.727 278.689 108.136 278.273 107.382C277.87 106.628 277.668 105.737 277.668 104.71C277.668 103.696 277.87 102.812 278.273 102.058C278.676 101.291 279.235 100.7 279.95 100.284C280.678 99.8546 281.516 99.6401 282.465 99.6401C283.401 99.6401 284.207 99.8546 284.883 100.284C285.572 100.7 286.099 101.252 286.463 101.941C286.827 102.63 287.009 103.371 287.009 104.164C287.009 104.307 287.002 104.45 286.989 104.593C286.989 104.736 286.989 104.899 286.989 105.081H279.287C279.326 105.822 279.495 106.439 279.794 106.933C280.106 107.414 280.489 107.778 280.944 108.025C281.412 108.272 281.906 108.396 282.426 108.396C283.102 108.396 283.668 108.24 284.123 107.928C284.578 107.616 284.909 107.193 285.117 106.66H286.736C286.476 107.557 285.975 108.305 285.234 108.903C284.506 109.488 283.57 109.78 282.426 109.78ZM282.426 101.025C281.646 101.025 280.951 101.265 280.34 101.746C279.742 102.214 279.397 102.903 279.306 103.813H285.39C285.351 102.942 285.052 102.26 284.493 101.766C283.934 101.272 283.245 101.025 282.426 101.025Z" fill="#7A7A7A"/>
<path d="M382.585 109.546L387.616 95.8961H389.352L394.363 109.546H392.628L391.38 106.036H385.569L384.301 109.546H382.585ZM386.056 104.71H390.892L388.474 97.9631L386.056 104.71Z" fill="#7A7A7A"/>
<path d="M396.392 109.546V95.8961H400.877C401.943 95.8961 402.821 96.0716 403.51 96.4226C404.199 96.7736 404.706 97.2481 405.031 97.8461C405.369 98.4441 405.538 99.1201 405.538 99.8741C405.538 100.615 405.375 101.285 405.05 101.883C404.725 102.481 404.218 102.962 403.529 103.326C402.84 103.677 401.956 103.852 400.877 103.852H398.03V109.546H396.392ZM398.03 102.468H400.838C401.93 102.468 402.704 102.24 403.159 101.785C403.627 101.317 403.861 100.68 403.861 99.8741C403.861 99.0551 403.627 98.4181 403.159 97.9631C402.704 97.4951 401.93 97.2611 400.838 97.2611H398.03V102.468Z" fill="#7A7A7A"/>
<path d="M407.685 109.546V95.8961H409.323V109.546H407.685Z" fill="#7A7A7A"/>
<path d="M412.685 109.644C412.36 109.644 412.087 109.54 411.866 109.332C411.658 109.111 411.554 108.844 411.554 108.532C411.554 108.22 411.658 107.96 411.866 107.752C412.087 107.531 412.36 107.421 412.685 107.421C412.997 107.421 413.257 107.531 413.465 107.752C413.686 107.96 413.796 108.22 413.796 108.532C413.796 108.844 413.686 109.111 413.465 109.332C413.257 109.54 412.997 109.644 412.685 109.644Z" fill="#7A7A7A"/>
<defs>
<linearGradient id="paint0_linear_6_92" x1="153" y1="44.5" x2="187" y2="44.5" gradientUnits="userSpaceOnUse">
<stop stop-color="#00ACD7"/>
<stop offset="1" stop-color="#00A2E4"/>
</linearGradient>
</defs>
</svg>
